<svg xmlns="http://www.w3.org/2000/svg" xmlns:svg="http://www.w3.org/2000/svg" id="svg2816" width="16" height="16" version="1.1"><metadata id="metadata2821"/><g id="layer1"><path id="path3649" fill="#59e759" fill-opacity="1" stroke="none" stroke-linecap="round" stroke-linejoin="round" stroke-opacity="1" stroke-width="1" d="M 0.5,3 13,15.5 0.5,15.5 0.5,3 z"/><path id="path3649-3" fill="#e7e559" fill-opacity="1" stroke="none" stroke-linecap="round" stroke-linejoin="round" stroke-opacity="1" stroke-width="1" d="M 15.5,13 3,0.5 l 12.5,0 0,12.5 z"/><path id="path3694" fill="none" stroke="#1cc01c" stroke-linecap="round" stroke-linejoin="round" stroke-opacity="1" stroke-width="1" d="m 0.5,6.5 3,0 0,9"/><path id="path3694-5" fill="none" stroke="#1cc01c" stroke-linecap="round" stroke-linejoin="round" stroke-opacity="1" stroke-width="1" d="m 0.5,9.5 6,0 0,6"/><path id="path3694-5-2" fill="none" stroke="#1cc01c" stroke-linecap="round" stroke-linejoin="round" stroke-opacity="1" stroke-width="1" d="m 0.5,12.5 9,0 0,3"/><path id="path3649-8" fill="none" stroke="#148c14" stroke-linecap="round" stroke-linejoin="round" stroke-opacity="1" stroke-width="1" d="M 0.5,3 13,15.5 0.5,15.5 0.5,3 z"/><path id="path3694-8" fill="none" stroke="#c0be1c" stroke-linecap="round" stroke-linejoin="round" stroke-opacity="1" stroke-width="1" d="m 15.5,9.5 -3,0 0,-9"/><path id="path3694-5-4" fill="none" stroke="#c0be1c" stroke-linecap="round" stroke-linejoin="round" stroke-opacity="1" stroke-width="1" d="m 15.5,6.5 -6,0 0,-6"/><path id="path3694-5-2-0" fill="none" stroke="#c0be1c" stroke-linecap="round" stroke-linejoin="round" stroke-opacity="1" stroke-width="1" d="m 15.5,3.5 -9,0 0,-3"/><path id="path3649-3-3" fill="none" stroke="#8c8c14" stroke-linecap="round" stroke-linejoin="round" stroke-opacity="1" stroke-width="1" d="M 15.5,13 3,0.5 l 12.5,0 0,12.5 z"/></g></svg>